<?xml version="1.0" standalone="no"?>
<!DOCTYPE svg PUBLIC "-//W3C//DTD SVG 20010904//EN"
 "http://www.w3.org/TR/2001/REC-SVG-20010904/DTD/svg10.dtd">
<svg version="1.0" xmlns="http://www.w3.org/2000/svg"
 width="234.000000pt" height="268.000000pt" viewBox="0 0 234.000000 268.000000"
 preserveAspectRatio="xMidYMid meet">

<g transform="translate(0.000000,268.000000) scale(0.100000,-0.100000)"
fill="#FFFFFF" stroke="none">
<path d="M577 2347 l-577 -331 0 -676 0 -676 577 -329 c317 -182 584 -330 593
-330 9 0 276 148 593 330 l577 329 0 676 0 676 -577 329 c-317 182 -583 331
-592 332 -9 1 -276 -148 -594 -330z m1138 -102 l525 -300 0 -605 0 -605 -526
-300 c-289 -165 -534 -300 -544 -300 -10 0 -255 135 -544 300 l-526 300 0 605
0 605 528 302 c290 166 535 301 544 300 10 -1 254 -137 543 -302z"/>
<path d="M1000 1800 l0 -40 50 0 50 0 0 -450 0 -450 -50 0 -50 0 0 -35 0 -35
180 0 180 0 0 35 0 35 -50 0 -50 0 0 450 0 450 50 0 50 0 0 40 0 40 -180 0
-180 0 0 -40z"/>
</g>
</svg>